<?xml version="1.0" encoding="iso-8859-1"?>
<!-- Generator: Adobe Illustrator 19.0.0, SVG Export Plug-In . SVG Version: 6.00 Build 0)  -->
<svg version="1.1" id="Capa_1" xmlns="http://www.w3.org/2000/svg" xmlns:xlink="http://www.w3.org/1999/xlink" x="0px" y="0px"
	 	width="54px" height="40px" viewBox="0 0 512 512" style="enable-background:new 0 0 512 512;" xml:space="preserve">
<path style="fill:#F2F2F2;" d="M494.345,0H17.655C7.901,0,0,7.901,0,17.655v308.966h512V17.655C512,7.901,504.099,0,494.345,0z"/>
<path style="fill:#CCCCCC;" d="M0,379.586c0,9.754,7.901,17.655,17.655,17.655h476.69c9.754,0,17.655-7.901,17.655-17.655v-52.966H0
	V379.586z"/>
<path style="fill:#999999;" d="M326.621,397.241l26.483,79.448H256h-97.103l26.483-79.448H326.621z"/>
<path style="fill:#CCCCCC;" d="M61.793,476.69h406.069V512H61.793V476.69z"/>
<path style="fill:#FF0000;" d="M132.414,194.207h35.31v97.103h-35.31V194.207z"/>
<g>
	<path style="fill:#0071BC;" d="M203.034,150.069h35.31V291.31h-35.31V150.069z"/>
	<path style="fill:#0071BC;" d="M273.655,114.759h35.31V291.31h-35.31V114.759z"/>
	<path style="fill:#0071BC;" d="M344.276,70.621h35.31v220.69h-35.31V70.621z"/>
</g>
<g>
	<path style="fill:#29485A;" d="M26.483,61.793h88.276v17.655H26.483V61.793z"/>
	<path style="fill:#29485A;" d="M26.483,97.103h88.276v17.655H26.483V97.103z"/>
	<path style="fill:#29485A;" d="M26.483,132.414h44.138v17.655H26.483V132.414z"/>
	<path style="fill:#29485A;" d="M432.552,211.862h52.966v17.655h-52.966V211.862z"/>
	<path style="fill:#29485A;" d="M432.552,247.172h52.966v17.655h-52.966V247.172z"/>
	<path style="fill:#29485A;" d="M432.552,282.483h52.966v17.655h-52.966V282.483z"/>
</g>
<path style="fill:#CCCCCC;" d="M0,35.31h512V17.655C512,7.901,504.099,0,494.345,0H17.655C7.901,0,0,7.901,0,17.655V35.31z"/>
<path style="fill:#999999;" d="M247.172,353.103h17.655v17.655h-17.655V353.103z"/>
<g>
</g>
<g>
</g>
<g>
</g>
<g>
</g>
<g>
</g>
<g>
</g>
<g>
</g>
<g>
</g>
<g>
</g>
<g>
</g>
<g>
</g>
<g>
</g>
<g>
</g>
<g>
</g>
<g>
</g>
</svg>
